<svg height="511pt" viewBox="-10 0 511 511.99962" width="511pt" xmlns="http://www.w3.org/2000/svg"><path d="m245.5 22c-135.308594 0-245 109.691406-245 245 0 43.441406 11.320312 84.230469 31.152344 119.609375l326.636718 97.925781c78.550782-40.808594 132.210938-122.902344 132.210938-217.535156 0-135.308594-109.6875-245-245-245zm0 0" fill="#fbc840"/><path d="m112.269531 472.625c38.351563 24.902344 84.097657 39.375 133.230469 39.375s94.882812-14.472656 133.234375-39.375zm0 0" fill="#3c2b8e"/><path d="m253.335938 23.828125-.070313-.347656c-1.875-9.398438 2.773437-20.289063 15.292969-22.929688 25.117187-5.292969 32.242187 28.769531 13.289062 45.824219-1.890625 1.699219-4.542968 2.257812-6.957031 1.464844-10.875-3.570313-19.175781-12.734375-21.554687-24.011719zm18.148437-9.398437c-1.253906.265624-5.261719 1.496093-4.3125 6.273437l.035156.175781c1.023438 4.835938 3.984375 8.992188 8.078125 11.582032 2.695313-4.011719 3.730469-9.003907 2.71875-13.816407-.054687-.082031-.710937-5.441406-6.519531-4.214843zm0 0" fill="#ba4d3c"/><path d="m372.496094 80.800781-74.082032-54.324219c-5.410156-3.96875-12.902343-3.394531-17.648437 1.347657l-61.84375 61.84375s11.339844 72.765625-39.988281 124.09375l31.539062 31.539062s51.019532-29.375 80.703125 19.480469c11.496094 18.921875 19.097657 31.351562 24.097657 39.476562 5.292968 8.609376 16.09375 12.03125 25.382812 8.050782l7.722656-3.308594c-79.15625-126.160156 24.117188-228.199219 24.117188-228.199219zm0 0" fill="#98341a"/><path d="m298.414062 26.476562c-5.410156-3.96875-12.902343-3.394531-17.648437 1.347657l-61.84375 61.84375s11.339844 72.765625-39.988281 124.09375l31.539062 31.539062s30.894532-17.78125 58.589844-2.648437c-.863281-5.03125-18.273438-113.398438 73.402344-183.875zm0 0" fill="#872815"/><path d="m372.496094 80.800781-75.316406-55.5625c-5.410157-3.96875-12.90625-3.394531-17.652344 1.347657l-8.265625 8.269531c-2.429688 2.429687-2.128907 6.453125.636719 8.492187l82.066406 60.488282c10.15625-14.753907 18.53125-23.035157 18.53125-23.035157zm0 0" fill="#aa3d27"/><path d="m297.179688 25.238281c-5.410157-3.964843-12.90625-3.394531-17.652344 1.351563l-8.265625 8.265625c-2.429688 2.429687-2.128907 6.453125.636719 8.492187l48.175781 35.511719c6.652343-6.960937 14.101562-13.714844 22.480469-20.148437zm0 0" fill="#98341a"/><path d="m364.988281 273.167969c-34.734375-83.261719 7.820313-143.203125 32.734375-171.875 2.777344-3.199219 2.484375-8.035157-.511718-11.03125l-9.859376-9.859375c-4.152343-4.152344-10.933593-3.96875-14.851562.402344 0 0-103.277344 102.039062-24.121094 228.195312 15.015625-4.714844 22.667969-21.304688 16.609375-35.832031zm0 0" fill="#ba4d3c"/><path d="m470.375 414.148438c.949219-5.929688-3.054688-11.53125-8.953125-12.671876-82.566406-16.003906-113.042969-92.476562-113.042969-92.476562l-7.722656 3.3125c-9.289062 3.980469-20.089844.554688-25.382812-8.050781-5-8.128907-12.601563-20.554688-24.097657-39.480469-29.683593-48.855469-80.703125-19.480469-80.703125-19.480469 170.0625 204.699219 238.503906 207.996094 238.503906 207.996094 14.914063-14.914063 19.859376-29.542969 21.398438-39.148437zm0 0" fill="#ba4d3c"/><path d="m269.101562 242.855469s-.015624-.082031-.035156-.203125c-27.695312-15.132813-58.59375 2.648437-58.59375 2.648437 11.789063 14.191407 23.089844 27.410157 33.914063 39.734375l3.222656-.558594s-10.261719-24.578124 21.492187-41.621093zm0 0" fill="#98341a"/><path d="m218.925781 89.667969s-46.175781 10.71875-86.992187 51.535156c0 0 1.648437 27.207031 47 72.558594 51.328125-51.328125 39.992187-124.09375 39.992187-124.09375zm0 0" fill="#7c2112"/><path d="m348.378906 309s30.476563 76.472656 113.042969 92.476562c-53.464844-44.347656-79.847656-86.441406-87.082031-103.949218-1.519532-3.671875-4.378906-6.566406-7.925782-8.164063-2.007812 8.9375-8.550781 16.660157-18.035156 19.636719zm0 0" fill="#aa3d27"/><path d="m393.359375 329.800781c-9.902344-13.847656-16.0625-25.113281-19.019531-32.273437-1.519532-3.671875-4.378906-6.566406-7.925782-8.164063-2.011718 8.941407-8.550781 16.660157-18.035156 19.636719 0 0 7.265625 18.222656 24.304688 38.734375-1.695313-11.847656 9.390625-21.238281 20.675781-17.933594zm0 0" fill="#98341a"/><path d="m448.976562 453.296875s-66.433593-5.304687-236.5-210l-31.539062-31.539063c-45.351562-45.351562-49.003906-70.554687-49.003906-70.554687-14.539063 0-24.109375 8.574219-30.09375 17.324219-6.503906 9.511718-6.632813 22.046875-.21875 31.617187 28.378906 42.359375 64.839844 74.332031 82.851562 88.785157 7.664063 6.152343 14.550782 13.191406 20.609375 20.929687 78.859375 100.753906 157.804688 149.019531 199.878907 169.476563 16.570312 8.054687 36.511718.785156 44.015624-16.039063zm0 0" fill="#abe4fe"/><path d="m247.609375 284.476562c-11.183594-12.742187-22.886719-26.441406-35.128906-41.179687l-31.539063-31.539063c-45.351562-45.351562-49.007812-70.554687-49.007812-70.554687-14.539063 0-24.109375 8.574219-30.09375 17.324219-6.503906 9.511718-6.632813 22.046875-.21875 31.617187 28.382812 42.359375 64.839844 74.332031 82.851562 88.785157 13.640625 10.949218 19.910156 20.25 28.925782 31.355468 1.605468-16.808594 17.289062-28.898437 34.210937-25.808594zm0 0" fill="#82c6f9"/><g fill="#98341a"><path d="m382.3125 100.671875c-4.460938-4.460937-11.695312-4.460937-16.160156 0-4.460938 4.460937-4.460938 11.695313 0 16.160156 4.464844 4.460938 11.699218 4.460938 16.160156 0 4.460938-4.464843 4.460938-11.699219 0-16.160156zm0 0"/><path d="m365.992188 126.992188c-4.460938-4.464844-11.695313-4.464844-16.160157 0-4.460937 4.460937-4.460937 11.695312 0 16.15625 4.464844 4.464843 11.699219 4.464843 16.160157 0 4.460937-4.460938 4.460937-11.695313 0-16.15625zm0 0"/><path d="m353.160156 157.316406c-4.460937-4.464844-11.695312-4.464844-16.15625 0-4.464844 4.460938-4.464844 11.695313 0 16.15625 4.460938 4.460938 11.695313 4.460938 16.15625 0 4.464844-4.460937 4.464844-11.695312 0-16.15625zm0 0"/><path d="m345.640625 188.238281c-4.464844-4.464843-11.699219-4.464843-16.160156 0-4.460938 4.460938-4.460938 11.695313 0 16.15625 4.460937 4.464844 11.695312 4.464844 16.160156 0 4.460937-4.460937 4.460937-11.695312 0-16.15625zm0 0"/><path d="m345.640625 222.785156c-4.464844-4.460937-11.699219-4.460937-16.160156 0-4.460938 4.460938-4.460938 11.695313 0 16.15625 4.460937 4.464844 11.695312 4.464844 16.160156 0 4.460937-4.460937 4.460937-11.695312 0-16.15625zm0 0"/><path d="m352.769531 254.207031c-4.460937-4.460937-11.695312-4.460937-16.160156 0-4.460937 4.460938-4.460937 11.695313 0 16.160157 4.464844 4.460937 11.699219 4.460937 16.160156 0 4.460938-4.464844 4.460938-11.699219 0-16.160157zm0 0"/></g><path d="m372.03125 106.753906c2.34375-3.136718 6.789062-3.78125 9.925781-1.433594l7.347657 5.484376c3.132812 2.339843 3.785156 6.789062 1.4375 9.929687-2.34375 3.136719-6.785157 3.78125-9.925782 1.4375l-7.347656-5.488281c-3.148438-2.355469-3.769531-6.800782-1.4375-9.929688zm0 0" fill="#d9f5ff"/><path d="m356.511719 134.238281c1.753906-3.5 6.015625-4.914062 9.519531-3.15625l7.117188 3.574219c3.5 1.757812 4.914062 6.015625 3.15625 9.515625-1.757813 3.503906-6.015626 4.917969-9.519532 3.160156l-7.117187-3.574219c-3.515625-1.765624-4.90625-6.03125-3.15625-9.519531zm0 0" fill="#d9f5ff"/><path d="m343.972656 164.910156c1.222656-3.722656 5.230469-5.746094 8.949219-4.519531l7.402344 2.433594c3.71875 1.222656 5.742187 5.234375 4.519531 8.953125-1.226562 3.722656-5.234375 5.746094-8.953125 4.519531l-7.402344-2.433594c-3.695312-1.214843-5.75-5.210937-4.515625-8.953125zm0 0" fill="#d9f5ff"/><path d="m336.808594 195.945312c.730468-3.847656 4.441406-6.375 8.292968-5.644531l8.640626 1.644531c3.84375.730469 6.371093 4.441407 5.640624 8.289063-.730468 3.847656-4.441406 6.375-8.289062 5.644531l-8.644531-1.640625c-3.851563-.734375-6.371094-4.453125-5.640625-8.292969zm0 0" fill="#d9f5ff"/><path d="m335.992188 230.828125c-.351563-3.902344 2.527343-7.347656 6.429687-7.695313l9.972656-.894531c3.902344-.347656 7.347657 2.53125 7.695313 6.429688.351562 3.902343-2.527344 7.347656-6.429688 7.695312l-9.972656.894531c-3.894531.347657-7.347656-2.523437-7.695312-6.429687zm0 0" fill="#d9f5ff"/><path d="m343.074219 262.539062c-.632813-3.867187 1.988281-7.511718 5.855469-8.144531l9.914062-1.621093c3.863281-.632813 7.511719 1.988281 8.140625 5.855468.632813 3.863282-1.988281 7.511719-5.851563 8.144532l-9.914062 1.621093c-3.859375.632813-7.511719-1.984375-8.144531-5.855469zm0 0" fill="#d9f5ff"/><path d="m29.777344 256.871094-.292969-.195313c-7.972656-5.320312-12.386719-16.308593-5.402344-27.027343 14.019531-21.503907 43.144531-2.457032 41.800781 23.003906-.132812 2.535156-1.613281 4.808594-3.882812 5.953125-10.214844 5.167969-22.5625 4.558593-32.222656-1.734375zm6.191406-19.476563c-.699219 1.070313-2.664062 4.777344 1.386719 7.480469l.148437.097656c4.140625 2.699219 9.175782 3.546875 13.902344 2.484375-.929688-4.746093-3.730469-9.007812-7.847656-11.695312-.097656-.019531-4.351563-3.34375-7.589844 1.632812zm0 0" fill="#ba4d3c"/><path d="m154.328125 212.898438-90.800781 13.96875c-6.628906 1.019531-11.523438 6.722656-11.523438 13.433593v87.457031s59.46875 43.4375 59.46875 116.027344h44.605469s15.304687-56.847656 70.839844-43.292968c21.511719 5.25 35.671875 8.664062 44.953125 10.875 9.832031 2.34375 19.886718-2.871094 23.640625-12.253907l3.121093-7.804687c-145.179687-33.230469-144.304687-178.410156-144.304687-178.410156zm0 0" fill="#98341a"/><path d="m115.980469 243.769531c.054687-8.691406-2.484375-16.941406-6.980469-23.898437l-45.472656 6.996094c-6.632813 1.019531-11.527344 6.722656-11.527344 13.433593v87.457031s59.472656 43.4375 59.472656 116.027344h44.605469s5.289063-19.625 20.914063-33.066406c-52.902344-59.847656-61.261719-128.285156-61.011719-166.949219zm0 0" fill="#872815"/><path d="m175.539062 294.226562c-.550781.25-1.089843.542969-1.601562.894532l-11.566406 7.988281c-4.75 3.28125-5.953125 9.851563-2.671875 14.597656l20.03125 29.007813c3.28125 4.75 9.847656 5.953125 14.597656 2.671875l11.566406-7.984375c.503907-.351563.960938-.742188 1.382813-1.15625-14.015625-14.546875-24.257813-30.476563-31.738282-46.019532zm0 0" fill="#fbc840"/><path d="m192.980469 323.296875c-7.050781-9.554687-12.78125-19.390625-17.441407-29.070313-.550781.25-1.089843.542969-1.601562.894532l-11.566406 7.988281c-4.75 3.28125-5.953125 9.851563-2.671875 14.597656l12.601562 18.25c-.863281-11.199219 11.3125-18.414062 20.679688-12.660156zm0 0" fill="#f9b50b"/><path d="m154.328125 212.898438-92.550781 13.96875c-6.628906 1.019531-11.523438 6.722656-11.523438 13.433593v11.691407c0 3.4375 3.058594 6.066406 6.457032 5.554687l100.800781-15.257813c-3.253907-17.613281-3.183594-29.390624-3.183594-29.390624zm0 0" fill="#aa3d27"/><path d="m115.980469 243.769531c.058593-8.742187-2.507813-17.035156-7.058594-24.019531l-47.144531 7.117188c-6.628906 1.019531-11.523438 6.722656-11.523438 13.433593v11.691407c0 3.4375 3.058594 6.066406 6.457032 5.550781l59.285156-8.96875c-.019532-1.648438-.023438-3.25-.015625-4.804688zm0 0" fill="#98341a"/><path d="m285.039062 354.230469c-83.433593-34.3125-95.726562-106.789063-98.386718-144.683594-.296875-4.222656-3.925782-7.4375-8.160156-7.4375h-13.949219c-5.867188 0-10.53125 4.925781-10.214844 10.789063 0 0-.875 145.179687 144.304687 178.410156 7.28125-13.949219.960938-31.089844-13.59375-37.078125zm0 0" fill="#ba4d3c"/><path d="m459.246094 379.398438c-3.519532-4.863282-10.3125-5.992188-15.289063-2.632813-69.703125 47.070313-145.324219 14.546875-145.324219 14.546875l-3.121093 7.800781c-3.753907 9.382813-13.8125 14.597657-23.640625 12.257813-9.28125-2.214844-23.441406-5.628906-44.953125-10.878906-55.535157-13.554688-70.839844 43.292968-70.839844 43.292968 264.996094 24.488282 315.71875-21.574218 315.71875-21.574218 0-21.089844-6.84375-34.933594-12.550781-42.8125zm0 0" fill="#ba4d3c"/><path d="m52 327.757812s-13.929688 22.359376-21.019531 57.648438c11.410156 20.625 25.703125 39.429688 42.339843 55.871094 10.519532 1.515625 23.136719 2.507812 38.152344 2.507812 0-72.589844-59.472656-116.027344-59.472656-116.027344zm0 0" fill="#7c2112"/><path d="m298.632812 391.3125s75.621094 32.523438 145.324219-14.546875c-69.164062 6.449219-117.585937-4.660156-135.078125-11.921875-3.671875-1.523438-7.738281-1.550781-11.378906-.171875 4.898438 7.742187 5.734375 17.828125 1.132812 26.640625zm0 0" fill="#aa3d27"/><path d="m347.203125 401.839844c-9.425781-6.902344-8.796875-21.039063 1.117187-27.113282-18.417968-2.855468-31.847656-6.730468-39.441406-9.882812-3.671875-1.523438-7.738281-1.550781-11.378906-.171875 4.902344 7.742187 5.734375 17.828125 1.132812 26.640625 0 0 19.847657 8.527344 48.570313 10.527344zm0 0" fill="#98341a"/><path d="m452.019531 464.675781c17.410157-6.019531 26.371094-25.261719 19.777344-42.464843 0 0-50.722656 43.226562-315.71875 18.738281h-44.605469c-16.363281 0-29.875-.996094-40.9375-2.472657 19.75 20.144532 42.9375 36.90625 68.628906 49.304688 8.839844-.5 16.414063-1.1875 22.304688-1.832031 9.769531-1.070313 19.617188-.964844 29.371094.226562 127.007812 15.480469 216.957031-6.214843 261.179687-21.5zm0 0" fill="#d9f5ff"/><path d="m186.742188 231.429688c0 6.308593-5.113282 11.425781-11.425782 11.425781-6.308594 0-11.425781-5.117188-11.425781-11.425781 0-6.308594 5.117187-11.425782 11.425781-11.425782 6.3125 0 11.425782 5.117188 11.425782 11.425782zm0 0" fill="#98341a"/><path d="m193.8125 261.578125c0 6.3125-5.117188 11.425781-11.425781 11.425781-6.3125 0-11.429688-5.113281-11.429688-11.425781 0-6.308594 5.117188-11.425781 11.429688-11.425781 6.308593 0 11.425781 5.117187 11.425781 11.425781zm0 0" fill="#98341a"/><path d="m206.183594 292.09375c0 6.3125-5.117188 11.425781-11.425782 11.425781-6.3125 0-11.425781-5.113281-11.425781-11.425781 0-6.308594 5.113281-11.425781 11.425781-11.425781 6.308594 0 11.425782 5.117187 11.425782 11.425781zm0 0" fill="#98341a"/><path d="m222.730469 319.28125c0 6.308594-5.117188 11.425781-11.425781 11.425781-6.3125 0-11.425782-5.117187-11.425782-11.425781 0-6.3125 5.113282-11.425781 11.425782-11.425781 6.308593 0 11.425781 5.113281 11.425781 11.425781zm0 0" fill="#98341a"/><path d="m247.15625 343.707031c0 6.308594-5.113281 11.425781-11.425781 11.425781-6.308594 0-11.425781-5.117187-11.425781-11.425781 0-6.3125 5.117187-11.425781 11.425781-11.425781 6.3125 0 11.425781 5.113281 11.425781 11.425781zm0 0" fill="#98341a"/><path d="m274.421875 360.882812c0 6.3125-5.117187 11.429688-11.425781 11.429688-6.3125 0-11.425782-5.117188-11.425782-11.429688 0-6.308593 5.113282-11.425781 11.425782-11.425781 6.308594 0 11.425781 5.117188 11.425781 11.425781zm0 0" fill="#98341a"/><path d="m172.351562 231.578125c-.5625-3.875 2.125-7.472656 6-8.035156l9.078126-1.316407c3.863281-.558593 7.472656 2.125 8.03125 6.003907.5625 3.875-2.125 7.472656-6 8.035156l-9.074219 1.3125c-3.894531.566406-7.476563-2.140625-8.035157-6zm0 0" fill="#d9f5ff"/><path d="m180.808594 261.988281c-1.234375-3.71875.777344-7.734375 4.496094-8.964843l7.5625-2.507813c3.71875-1.234375 7.730468.78125 8.960937 4.496094 1.234375 3.71875-.777344 7.730469-4.496094 8.964843l-7.558593 2.507813c-3.734376 1.238281-7.738282-.796875-8.964844-4.496094zm0 0" fill="#d9f5ff"/><path d="m193.628906 292.539062c-1.765625-3.496093-.363281-7.761718 3.136719-9.523437l6.953125-3.511719c3.492188-1.765625 7.761719-.359375 9.527344 3.136719s.359375 7.761719-3.136719 9.523437l-6.957031 3.511719c-3.472656 1.753907-7.75.382813-9.523438-3.136719zm0 0" fill="#d9f5ff"/><path d="m210.511719 319.550781c-2.203125-3.238281-1.367188-7.648437 1.871093-9.851562l7.269532-4.949219c3.238281-2.203125 7.648437-1.367188 9.855468 1.871094 2.203126 3.238281 1.363282 7.648437-1.875 9.855468l-7.269531 4.945313c-3.246093 2.210937-7.65625 1.359375-9.851562-1.871094zm0 0" fill="#d9f5ff"/><path d="m234.597656 344.792969c-3.007812-2.511719-3.40625-6.984375-.894531-9.988281l6.417969-7.683594c2.511718-3.003906 6.984375-3.40625 9.992187-.894532 3.003907 2.511719 3.40625 6.984376.890625 9.988282l-6.417968 7.683594c-2.507813 3.003906-6.980469 3.410156-9.988282.894531zm0 0" fill="#d9f5ff"/><path d="m262.027344 362.210938c-3.179688-2.285157-3.90625-6.71875-1.617188-9.898438l5.863282-8.15625c2.285156-3.179688 6.71875-3.90625 9.898437-1.617188 3.179687 2.285157 3.902344 6.714844 1.617187 9.898438l-5.863281 8.15625c-2.28125 3.171875-6.714843 3.90625-9.898437 1.617188zm0 0" fill="#d9f5ff"/><path d="m111.472656 440.949219c-16.363281 0-29.875-.996094-40.9375-2.472657 19.75 20.144532 42.9375 36.90625 68.628906 49.304688 8.839844-.5 16.414063-1.1875 22.308594-1.832031 1.699219-.1875 3.402344-.324219 5.105469-.441407h-.003906c-26.316407-20.824218-10.496094-44.558593-10.496094-44.558593zm0 0" fill="#abe4fe"/></svg>